<mxfile host="app.diagrams.net" agent="Mozilla/5.0 (Windows NT 10.0; Win64; x64; rv:144.0) Gecko/20100101 Firefox/144.0" version="28.2.7">
  <diagram id="o73PpDaly_YqbrQDkOgm" name="Bookshop">
    <mxGraphModel dx="2379" dy="1066" grid="1" gridSize="10" guides="1" tooltips="1" connect="1" arrows="1" fold="1" page="1" pageScale="1" pageWidth="827" pageHeight="1169" math="0" shadow="0">
      <root>
        <mxCell id="0" />
        <mxCell id="1" parent="0" />
        <mxCell id="hXFHP3BiFAaLXpiSTmmo-5" value="Book" style="swimlane;fontStyle=1;align=center;verticalAlign=top;childLayout=stackLayout;horizontal=1;startSize=26;horizontalStack=0;resizeParent=1;resizeParentMax=0;resizeLast=0;collapsible=1;marginBottom=0;whiteSpace=wrap;html=1;fillColor=#dae8fc;strokeColor=#6c8ebf;" vertex="1" parent="1">
          <mxGeometry x="10" y="150" width="350" height="210" as="geometry">
            <mxRectangle x="10" y="150" width="70" height="30" as="alternateBounds" />
          </mxGeometry>
        </mxCell>
        <mxCell id="hXFHP3BiFAaLXpiSTmmo-6" value="- title: String&lt;br&gt;- author: String&lt;br&gt;- price: double&lt;br&gt;- status: String" style="text;strokeColor=none;fillColor=none;align=left;verticalAlign=top;spacingLeft=4;spacingRight=4;overflow=hidden;rotatable=0;points=[[0,0.5],[1,0.5]];portConstraint=eastwest;whiteSpace=wrap;html=1;" vertex="1" parent="hXFHP3BiFAaLXpiSTmmo-5">
          <mxGeometry y="26" width="350" height="64" as="geometry" />
        </mxCell>
        <mxCell id="hXFHP3BiFAaLXpiSTmmo-7" value="" style="line;strokeWidth=1;fillColor=none;align=left;verticalAlign=middle;spacingTop=-1;spacingLeft=3;spacingRight=3;rotatable=0;labelPosition=right;points=[];portConstraint=eastwest;strokeColor=inherit;" vertex="1" parent="hXFHP3BiFAaLXpiSTmmo-5">
          <mxGeometry y="90" width="350" height="8" as="geometry" />
        </mxCell>
        <mxCell id="hXFHP3BiFAaLXpiSTmmo-8" value="+ Book(title: String, author: String, price: double, status: String)&lt;br&gt;+ getTitle(): String&lt;br&gt;+ getAuthor(): String&lt;br&gt;+ getPrice(): double&lt;br&gt;+ getStatus(): String&lt;br&gt;+ setStatus(status: String): void&lt;br&gt;+ toString(): String" style="text;strokeColor=none;fillColor=none;align=left;verticalAlign=top;spacingLeft=4;spacingRight=4;overflow=hidden;rotatable=0;points=[[0,0.5],[1,0.5]];portConstraint=eastwest;whiteSpace=wrap;html=1;" vertex="1" parent="hXFHP3BiFAaLXpiSTmmo-5">
          <mxGeometry y="98" width="350" height="112" as="geometry" />
        </mxCell>
        <mxCell id="hXFHP3BiFAaLXpiSTmmo-9" value="BookStatus" style="swimlane;fontStyle=1;align=center;verticalAlign=top;childLayout=stackLayout;horizontal=1;startSize=26;horizontalStack=0;resizeParent=1;resizeParentMax=0;resizeLast=0;collapsible=1;marginBottom=0;whiteSpace=wrap;html=1;fillColor=#fff2cc;strokeColor=#d6b656;" vertex="1" parent="1">
          <mxGeometry x="105" y="20" width="160" height="68" as="geometry">
            <mxRectangle x="105" y="20" width="100" height="30" as="alternateBounds" />
          </mxGeometry>
        </mxCell>
        <mxCell id="hXFHP3BiFAaLXpiSTmmo-10" value="AVAILABLE: String&lt;br&gt;MISSING: String" style="text;strokeColor=none;fillColor=none;align=left;verticalAlign=top;spacingLeft=4;spacingRight=4;overflow=hidden;rotatable=0;points=[[0,0.5],[1,0.5]];portConstraint=eastwest;whiteSpace=wrap;html=1;" vertex="1" parent="hXFHP3BiFAaLXpiSTmmo-9">
          <mxGeometry y="26" width="160" height="34" as="geometry" />
        </mxCell>
        <mxCell id="hXFHP3BiFAaLXpiSTmmo-11" value="" style="line;strokeWidth=1;fillColor=none;align=left;verticalAlign=middle;spacingTop=-1;spacingLeft=3;spacingRight=3;rotatable=0;labelPosition=right;points=[];portConstraint=eastwest;strokeColor=inherit;" vertex="1" parent="hXFHP3BiFAaLXpiSTmmo-9">
          <mxGeometry y="60" width="160" height="8" as="geometry" />
        </mxCell>
        <mxCell id="7GwLjK6vqVXYc_SGpUxF-1" value="BookRequest" style="swimlane;fontStyle=1;align=center;verticalAlign=top;childLayout=stackLayout;horizontal=1;startSize=26;horizontalStack=0;resizeParent=1;resizeParentMax=0;resizeLast=0;collapsible=1;marginBottom=0;whiteSpace=wrap;html=1;fillColor=#dae8fc;strokeColor=#6c8ebf;" vertex="1" parent="1">
          <mxGeometry x="380" y="360" width="220" height="190" as="geometry">
            <mxRectangle x="335" y="120" width="110" height="30" as="alternateBounds" />
          </mxGeometry>
        </mxCell>
        <mxCell id="7GwLjK6vqVXYc_SGpUxF-2" value="- book: Book&lt;br&gt;- waitingOrders: List&amp;lt;Order&amp;gt;&lt;br&gt;- resolved: boolean" style="text;strokeColor=none;fillColor=none;align=left;verticalAlign=top;spacingLeft=4;spacingRight=4;overflow=hidden;rotatable=0;points=[[0,0.5],[1,0.5]];portConstraint=eastwest;whiteSpace=wrap;html=1;" vertex="1" parent="7GwLjK6vqVXYc_SGpUxF-1">
          <mxGeometry y="26" width="220" height="54" as="geometry" />
        </mxCell>
        <mxCell id="7GwLjK6vqVXYc_SGpUxF-3" value="" style="line;strokeWidth=1;fillColor=none;align=left;verticalAlign=middle;spacingTop=-1;spacingLeft=3;spacingRight=3;rotatable=0;labelPosition=right;points=[];portConstraint=eastwest;strokeColor=inherit;" vertex="1" parent="7GwLjK6vqVXYc_SGpUxF-1">
          <mxGeometry y="80" width="220" height="8" as="geometry" />
        </mxCell>
        <mxCell id="7GwLjK6vqVXYc_SGpUxF-4" value="+ BookRequest(book: Book)&lt;br&gt;+ addWaitingOrder(order: Order): void&lt;br&gt;+ resolve(): void&lt;br&gt;&lt;div&gt;+ isResolved(): boolean&lt;/div&gt;&lt;div&gt;+ getBook(): Book&lt;/div&gt;+ toString(): String" style="text;strokeColor=none;fillColor=none;align=left;verticalAlign=top;spacingLeft=4;spacingRight=4;overflow=hidden;rotatable=0;points=[[0,0.5],[1,0.5]];portConstraint=eastwest;whiteSpace=wrap;html=1;" vertex="1" parent="7GwLjK6vqVXYc_SGpUxF-1">
          <mxGeometry y="88" width="220" height="102" as="geometry" />
        </mxCell>
        <mxCell id="7GwLjK6vqVXYc_SGpUxF-5" value="Order" style="swimlane;fontStyle=1;align=center;verticalAlign=top;childLayout=stackLayout;horizontal=1;startSize=26;horizontalStack=0;resizeParent=1;resizeParentMax=0;resizeLast=0;collapsible=1;marginBottom=0;whiteSpace=wrap;html=1;fillColor=#dae8fc;strokeColor=#6c8ebf;" vertex="1" parent="1">
          <mxGeometry x="605" y="155" width="210" height="200" as="geometry">
            <mxRectangle x="605" y="155" width="70" height="30" as="alternateBounds" />
          </mxGeometry>
        </mxCell>
        <mxCell id="7GwLjK6vqVXYc_SGpUxF-6" value="- id: int&lt;br&gt;- books: List&amp;lt;Book&amp;gt;&lt;br&gt;- status: String" style="text;strokeColor=none;fillColor=none;align=left;verticalAlign=top;spacingLeft=4;spacingRight=4;overflow=hidden;rotatable=0;points=[[0,0.5],[1,0.5]];portConstraint=eastwest;whiteSpace=wrap;html=1;" vertex="1" parent="7GwLjK6vqVXYc_SGpUxF-5">
          <mxGeometry y="26" width="210" height="54" as="geometry" />
        </mxCell>
        <mxCell id="7GwLjK6vqVXYc_SGpUxF-7" value="" style="line;strokeWidth=1;fillColor=none;align=left;verticalAlign=middle;spacingTop=-1;spacingLeft=3;spacingRight=3;rotatable=0;labelPosition=right;points=[];portConstraint=eastwest;strokeColor=inherit;" vertex="1" parent="7GwLjK6vqVXYc_SGpUxF-5">
          <mxGeometry y="80" width="210" height="8" as="geometry" />
        </mxCell>
        <mxCell id="7GwLjK6vqVXYc_SGpUxF-8" value="+ Order(id: int)&lt;br&gt;+ addBook(book: Book): void&lt;br&gt;+ changeStatus(status: String): void&lt;br&gt;+ hasMissingBooks(): boolean&lt;br&gt;+ getId(): int&lt;br&gt;+ getStatus(): String&lt;br&gt;+ toString(): String" style="text;strokeColor=none;fillColor=none;align=left;verticalAlign=top;spacingLeft=4;spacingRight=4;overflow=hidden;rotatable=0;points=[[0,0.5],[1,0.5]];portConstraint=eastwest;whiteSpace=wrap;html=1;" vertex="1" parent="7GwLjK6vqVXYc_SGpUxF-5">
          <mxGeometry y="88" width="210" height="112" as="geometry" />
        </mxCell>
        <mxCell id="7GwLjK6vqVXYc_SGpUxF-9" value="OrderStatus" style="swimlane;fontStyle=1;align=center;verticalAlign=top;childLayout=stackLayout;horizontal=1;startSize=26;horizontalStack=0;resizeParent=1;resizeParentMax=0;resizeLast=0;collapsible=1;marginBottom=0;whiteSpace=wrap;html=1;fillColor=#fff2cc;strokeColor=#d6b656;" vertex="1" parent="1">
          <mxGeometry x="630" y="10" width="160" height="88" as="geometry" />
        </mxCell>
        <mxCell id="7GwLjK6vqVXYc_SGpUxF-10" value="NEW: String&lt;br&gt;COMPLETED: String&lt;br&gt;CANCELLED: String" style="text;strokeColor=none;fillColor=none;align=left;verticalAlign=top;spacingLeft=4;spacingRight=4;overflow=hidden;rotatable=0;points=[[0,0.5],[1,0.5]];portConstraint=eastwest;whiteSpace=wrap;html=1;" vertex="1" parent="7GwLjK6vqVXYc_SGpUxF-9">
          <mxGeometry y="26" width="160" height="54" as="geometry" />
        </mxCell>
        <mxCell id="7GwLjK6vqVXYc_SGpUxF-11" value="" style="line;strokeWidth=1;fillColor=none;align=left;verticalAlign=middle;spacingTop=-1;spacingLeft=3;spacingRight=3;rotatable=0;labelPosition=right;points=[];portConstraint=eastwest;strokeColor=inherit;" vertex="1" parent="7GwLjK6vqVXYc_SGpUxF-9">
          <mxGeometry y="80" width="160" height="8" as="geometry" />
        </mxCell>
        <mxCell id="7GwLjK6vqVXYc_SGpUxF-13" value="Inventory" style="swimlane;fontStyle=1;align=center;verticalAlign=top;childLayout=stackLayout;horizontal=1;startSize=26;horizontalStack=0;resizeParent=1;resizeParentMax=0;resizeLast=0;collapsible=1;marginBottom=0;whiteSpace=wrap;html=1;fillColor=#d5e8d4;strokeColor=#82b366;" vertex="1" parent="1">
          <mxGeometry x="355" y="610" width="270" height="220" as="geometry" />
        </mxCell>
        <mxCell id="7GwLjK6vqVXYc_SGpUxF-14" value="- books: List&amp;lt;Book&amp;gt;&lt;br&gt;- requests: List&amp;lt;BookRequest&amp;gt;" style="text;strokeColor=none;fillColor=none;align=left;verticalAlign=top;spacingLeft=4;spacingRight=4;overflow=hidden;rotatable=0;points=[[0,0.5],[1,0.5]];portConstraint=eastwest;whiteSpace=wrap;html=1;" vertex="1" parent="7GwLjK6vqVXYc_SGpUxF-13">
          <mxGeometry y="26" width="270" height="44" as="geometry" />
        </mxCell>
        <mxCell id="7GwLjK6vqVXYc_SGpUxF-15" value="" style="line;strokeWidth=1;fillColor=none;align=left;verticalAlign=middle;spacingTop=-1;spacingLeft=3;spacingRight=3;rotatable=0;labelPosition=right;points=[];portConstraint=eastwest;strokeColor=inherit;" vertex="1" parent="7GwLjK6vqVXYc_SGpUxF-13">
          <mxGeometry y="70" width="270" height="8" as="geometry" />
        </mxCell>
        <mxCell id="7GwLjK6vqVXYc_SGpUxF-16" value="+ Inventory()&lt;br&gt;+ addBook(book: Book): void&lt;br&gt;+ markBookMissing(book: Book): void&lt;br&gt;+ requestBook(book: Book, order: Order): void&lt;br&gt;+ fulfillRequest(book: Book): void&lt;br&gt;+ getBooks(): List&amp;lt;Book&amp;gt;&lt;br&gt;+ getRequests(): List&amp;lt;BookRequest&amp;gt;" style="text;strokeColor=none;fillColor=none;align=left;verticalAlign=top;spacingLeft=4;spacingRight=4;overflow=hidden;rotatable=0;points=[[0,0.5],[1,0.5]];portConstraint=eastwest;whiteSpace=wrap;html=1;" vertex="1" parent="7GwLjK6vqVXYc_SGpUxF-13">
          <mxGeometry y="78" width="270" height="142" as="geometry" />
        </mxCell>
        <mxCell id="7GwLjK6vqVXYc_SGpUxF-17" value="BookStore" style="swimlane;fontStyle=1;align=center;verticalAlign=top;childLayout=stackLayout;horizontal=1;startSize=26;horizontalStack=0;resizeParent=1;resizeParentMax=0;resizeLast=0;collapsible=1;marginBottom=0;whiteSpace=wrap;html=1;fillColor=#d5e8d4;strokeColor=#82b366;" vertex="1" parent="1">
          <mxGeometry x="355" y="900" width="270" height="200" as="geometry" />
        </mxCell>
        <mxCell id="7GwLjK6vqVXYc_SGpUxF-18" value="- inventory: Inventory&lt;br&gt;- orders: List&amp;lt;Order&amp;gt;" style="text;strokeColor=none;fillColor=none;align=left;verticalAlign=top;spacingLeft=4;spacingRight=4;overflow=hidden;rotatable=0;points=[[0,0.5],[1,0.5]];portConstraint=eastwest;whiteSpace=wrap;html=1;" vertex="1" parent="7GwLjK6vqVXYc_SGpUxF-17">
          <mxGeometry y="26" width="270" height="44" as="geometry" />
        </mxCell>
        <mxCell id="7GwLjK6vqVXYc_SGpUxF-19" value="" style="line;strokeWidth=1;fillColor=none;align=left;verticalAlign=middle;spacingTop=-1;spacingLeft=3;spacingRight=3;rotatable=0;labelPosition=right;points=[];portConstraint=eastwest;strokeColor=inherit;" vertex="1" parent="7GwLjK6vqVXYc_SGpUxF-17">
          <mxGeometry y="70" width="270" height="8" as="geometry" />
        </mxCell>
        <mxCell id="7GwLjK6vqVXYc_SGpUxF-20" value="+ BookStore()&amp;nbsp; &amp;nbsp; &amp;nbsp; &amp;nbsp; &amp;nbsp; &amp;nbsp; &amp;nbsp; &amp;nbsp; &amp;nbsp; &amp;nbsp; &amp;nbsp; &amp;nbsp; &amp;nbsp; &amp;nbsp; &amp;nbsp;&amp;nbsp;&lt;br&gt;+ createOrder(books : List&amp;lt;Book&amp;gt;) : void&lt;br&gt;+ cancelOrder(id : int) : void&lt;br&gt;+ addBookToStock(book : Book) : void&lt;br&gt;+ showAllOrders() : void&lt;br&gt;+ showActiveRequests() : void&lt;br&gt;+ showBooksInStock() : void&lt;br&gt;+ completeOrder(id : int) : void" style="text;strokeColor=none;fillColor=none;align=left;verticalAlign=top;spacingLeft=4;spacingRight=4;overflow=hidden;rotatable=0;points=[[0,0.5],[1,0.5]];portConstraint=eastwest;whiteSpace=wrap;html=1;" vertex="1" parent="7GwLjK6vqVXYc_SGpUxF-17">
          <mxGeometry y="78" width="270" height="122" as="geometry" />
        </mxCell>
        <mxCell id="7GwLjK6vqVXYc_SGpUxF-21" value="Main" style="swimlane;fontStyle=1;align=center;verticalAlign=top;childLayout=stackLayout;horizontal=1;startSize=26;horizontalStack=0;resizeParent=1;resizeParentMax=0;resizeLast=0;collapsible=1;marginBottom=0;whiteSpace=wrap;html=1;fillColor=#f8cecc;strokeColor=#b85450;" vertex="1" parent="1">
          <mxGeometry x="10" y="970" width="210" height="60" as="geometry" />
        </mxCell>
        <mxCell id="7GwLjK6vqVXYc_SGpUxF-23" value="" style="line;strokeWidth=1;fillColor=none;align=left;verticalAlign=middle;spacingTop=-1;spacingLeft=3;spacingRight=3;rotatable=0;labelPosition=right;points=[];portConstraint=eastwest;strokeColor=inherit;" vertex="1" parent="7GwLjK6vqVXYc_SGpUxF-21">
          <mxGeometry y="26" width="210" height="8" as="geometry" />
        </mxCell>
        <mxCell id="7GwLjK6vqVXYc_SGpUxF-24" value="+ main(args: String[]): void" style="text;strokeColor=none;fillColor=none;align=left;verticalAlign=top;spacingLeft=4;spacingRight=4;overflow=hidden;rotatable=0;points=[[0,0.5],[1,0.5]];portConstraint=eastwest;whiteSpace=wrap;html=1;" vertex="1" parent="7GwLjK6vqVXYc_SGpUxF-21">
          <mxGeometry y="34" width="210" height="26" as="geometry" />
        </mxCell>
        <mxCell id="u1kkpKsbJfBWiW-mm26Q-3" value="Use" style="endArrow=open;endSize=12;dashed=1;html=1;rounded=0;" edge="1" parent="1" source="hXFHP3BiFAaLXpiSTmmo-5" target="hXFHP3BiFAaLXpiSTmmo-9">
          <mxGeometry width="160" relative="1" as="geometry">
            <mxPoint x="80" y="280" as="sourcePoint" />
            <mxPoint x="240" y="280" as="targetPoint" />
          </mxGeometry>
        </mxCell>
        <mxCell id="u1kkpKsbJfBWiW-mm26Q-4" value="Use" style="endArrow=open;endSize=12;dashed=1;html=1;rounded=0;" edge="1" parent="1" source="7GwLjK6vqVXYc_SGpUxF-5" target="7GwLjK6vqVXYc_SGpUxF-9">
          <mxGeometry width="160" relative="1" as="geometry">
            <mxPoint x="430" y="540" as="sourcePoint" />
            <mxPoint x="590" y="540" as="targetPoint" />
          </mxGeometry>
        </mxCell>
        <mxCell id="u1kkpKsbJfBWiW-mm26Q-5" value="Use" style="endArrow=open;endSize=12;dashed=1;html=1;rounded=0;" edge="1" parent="1" source="7GwLjK6vqVXYc_SGpUxF-21" target="7GwLjK6vqVXYc_SGpUxF-17">
          <mxGeometry width="160" relative="1" as="geometry">
            <mxPoint x="130" y="870" as="sourcePoint" />
            <mxPoint x="290" y="870" as="targetPoint" />
          </mxGeometry>
        </mxCell>
        <mxCell id="u1kkpKsbJfBWiW-mm26Q-12" value="" style="endArrow=diamondThin;endFill=0;endSize=24;html=1;rounded=0;" edge="1" parent="1" source="hXFHP3BiFAaLXpiSTmmo-5" target="7GwLjK6vqVXYc_SGpUxF-13">
          <mxGeometry width="160" relative="1" as="geometry">
            <mxPoint x="90" y="689.33" as="sourcePoint" />
            <mxPoint x="250" y="689.33" as="targetPoint" />
            <Array as="points">
              <mxPoint x="185" y="720" />
            </Array>
          </mxGeometry>
        </mxCell>
        <mxCell id="s8Ph6p0ntqMJTADkx-rv-6" value="&lt;strong data-end=&quot;1933&quot; data-start=&quot;1922&quot;&gt;1..1&lt;/strong&gt;" style="edgeLabel;html=1;align=center;verticalAlign=middle;resizable=0;points=[];" vertex="1" connectable="0" parent="u1kkpKsbJfBWiW-mm26Q-12">
          <mxGeometry x="0.8627" relative="1" as="geometry">
            <mxPoint x="22" y="20" as="offset" />
          </mxGeometry>
        </mxCell>
        <mxCell id="s8Ph6p0ntqMJTADkx-rv-7" value="&lt;strong data-end=&quot;1933&quot; data-start=&quot;1922&quot;&gt;0..*&lt;/strong&gt;" style="edgeLabel;html=1;align=center;verticalAlign=middle;resizable=0;points=[];" vertex="1" connectable="0" parent="u1kkpKsbJfBWiW-mm26Q-12">
          <mxGeometry x="-0.954" y="-3" relative="1" as="geometry">
            <mxPoint x="-12" as="offset" />
          </mxGeometry>
        </mxCell>
        <mxCell id="u1kkpKsbJfBWiW-mm26Q-13" value="" style="endArrow=diamondThin;endFill=1;endSize=24;html=1;rounded=0;" edge="1" parent="1" source="7GwLjK6vqVXYc_SGpUxF-1" target="7GwLjK6vqVXYc_SGpUxF-13">
          <mxGeometry width="160" relative="1" as="geometry">
            <mxPoint x="390" y="460" as="sourcePoint" />
            <mxPoint x="550" y="460" as="targetPoint" />
          </mxGeometry>
        </mxCell>
        <mxCell id="s8Ph6p0ntqMJTADkx-rv-8" value="&lt;strong data-end=&quot;1933&quot; data-start=&quot;1922&quot;&gt;1..1&lt;/strong&gt;" style="edgeLabel;html=1;align=center;verticalAlign=middle;resizable=0;points=[];" vertex="1" connectable="0" parent="u1kkpKsbJfBWiW-mm26Q-13">
          <mxGeometry x="0.3551" relative="1" as="geometry">
            <mxPoint x="20" y="6" as="offset" />
          </mxGeometry>
        </mxCell>
        <mxCell id="s8Ph6p0ntqMJTADkx-rv-9" value="&lt;strong data-end=&quot;1933&quot; data-start=&quot;1922&quot;&gt;0..*&lt;/strong&gt;" style="edgeLabel;html=1;align=center;verticalAlign=middle;resizable=0;points=[];" vertex="1" connectable="0" parent="u1kkpKsbJfBWiW-mm26Q-13">
          <mxGeometry x="-0.5156" y="1" relative="1" as="geometry">
            <mxPoint x="19" y="-4" as="offset" />
          </mxGeometry>
        </mxCell>
        <mxCell id="u1kkpKsbJfBWiW-mm26Q-14" value="" style="endArrow=diamondThin;endFill=1;endSize=24;html=1;rounded=0;" edge="1" parent="1" source="7GwLjK6vqVXYc_SGpUxF-13" target="7GwLjK6vqVXYc_SGpUxF-17">
          <mxGeometry width="160" relative="1" as="geometry">
            <mxPoint x="390" y="660" as="sourcePoint" />
            <mxPoint x="550" y="660" as="targetPoint" />
          </mxGeometry>
        </mxCell>
        <mxCell id="s8Ph6p0ntqMJTADkx-rv-1" value="&lt;strong data-end=&quot;1933&quot; data-start=&quot;1922&quot;&gt;1..1&lt;/strong&gt;" style="edgeLabel;html=1;align=center;verticalAlign=middle;resizable=0;points=[];" vertex="1" connectable="0" parent="u1kkpKsbJfBWiW-mm26Q-14">
          <mxGeometry x="0.179" y="-1" relative="1" as="geometry">
            <mxPoint x="21" y="19" as="offset" />
          </mxGeometry>
        </mxCell>
        <mxCell id="s8Ph6p0ntqMJTADkx-rv-2" value="&lt;strong data-end=&quot;1933&quot; data-start=&quot;1922&quot;&gt;1..1&lt;/strong&gt;" style="edgeLabel;html=1;align=center;verticalAlign=middle;resizable=0;points=[];" vertex="1" connectable="0" parent="u1kkpKsbJfBWiW-mm26Q-14">
          <mxGeometry x="-0.6781" relative="1" as="geometry">
            <mxPoint x="20" as="offset" />
          </mxGeometry>
        </mxCell>
        <mxCell id="u1kkpKsbJfBWiW-mm26Q-15" value="" style="endArrow=diamondThin;endFill=1;endSize=24;html=1;rounded=0;" edge="1" parent="1" source="7GwLjK6vqVXYc_SGpUxF-5" target="7GwLjK6vqVXYc_SGpUxF-17">
          <mxGeometry width="160" relative="1" as="geometry">
            <mxPoint x="390" y="750" as="sourcePoint" />
            <mxPoint x="550" y="750" as="targetPoint" />
            <Array as="points">
              <mxPoint x="710" y="1000" />
            </Array>
          </mxGeometry>
        </mxCell>
        <mxCell id="s8Ph6p0ntqMJTADkx-rv-3" value="&lt;strong data-end=&quot;1933&quot; data-start=&quot;1922&quot;&gt;1..1&lt;/strong&gt;" style="edgeLabel;html=1;align=center;verticalAlign=middle;resizable=0;points=[];" vertex="1" connectable="0" parent="u1kkpKsbJfBWiW-mm26Q-15">
          <mxGeometry x="0.95" relative="1" as="geometry">
            <mxPoint x="-3" y="17" as="offset" />
          </mxGeometry>
        </mxCell>
        <mxCell id="s8Ph6p0ntqMJTADkx-rv-5" value="&lt;strong data-end=&quot;1933&quot; data-start=&quot;1922&quot;&gt;0..*&lt;/strong&gt;" style="edgeLabel;html=1;align=center;verticalAlign=middle;resizable=0;points=[];" vertex="1" connectable="0" parent="u1kkpKsbJfBWiW-mm26Q-15">
          <mxGeometry x="-0.9628" relative="1" as="geometry">
            <mxPoint x="20" as="offset" />
          </mxGeometry>
        </mxCell>
        <mxCell id="u1kkpKsbJfBWiW-mm26Q-19" value="" style="endArrow=open;endFill=1;endSize=12;html=1;rounded=0;" edge="1" parent="1" source="7GwLjK6vqVXYc_SGpUxF-1" target="hXFHP3BiFAaLXpiSTmmo-5">
          <mxGeometry width="160" relative="1" as="geometry">
            <mxPoint x="420" y="580" as="sourcePoint" />
            <mxPoint x="580" y="580" as="targetPoint" />
            <Array as="points">
              <mxPoint x="280" y="455" />
            </Array>
          </mxGeometry>
        </mxCell>
        <mxCell id="s8Ph6p0ntqMJTADkx-rv-10" value="&lt;strong data-end=&quot;1933&quot; data-start=&quot;1922&quot;&gt;1..1&lt;/strong&gt;" style="edgeLabel;html=1;align=center;verticalAlign=middle;resizable=0;points=[];" vertex="1" connectable="0" parent="u1kkpKsbJfBWiW-mm26Q-19">
          <mxGeometry x="0.8622" y="1" relative="1" as="geometry">
            <mxPoint x="20" y="-3" as="offset" />
          </mxGeometry>
        </mxCell>
        <mxCell id="s8Ph6p0ntqMJTADkx-rv-11" value="&lt;strong data-end=&quot;1933&quot; data-start=&quot;1922&quot;&gt;1..1&lt;/strong&gt;" style="edgeLabel;html=1;align=center;verticalAlign=middle;resizable=0;points=[];" vertex="1" connectable="0" parent="u1kkpKsbJfBWiW-mm26Q-19">
          <mxGeometry x="-0.8677" y="-1" relative="1" as="geometry">
            <mxPoint y="-14" as="offset" />
          </mxGeometry>
        </mxCell>
        <mxCell id="u1kkpKsbJfBWiW-mm26Q-20" value="" style="endArrow=open;endFill=1;endSize=12;html=1;rounded=0;" edge="1" parent="1" source="7GwLjK6vqVXYc_SGpUxF-1" target="7GwLjK6vqVXYc_SGpUxF-5">
          <mxGeometry width="160" relative="1" as="geometry">
            <mxPoint x="390" y="500" as="sourcePoint" />
            <mxPoint x="550" y="500" as="targetPoint" />
            <Array as="points">
              <mxPoint x="640" y="455" />
            </Array>
          </mxGeometry>
        </mxCell>
        <mxCell id="s8Ph6p0ntqMJTADkx-rv-12" value="&lt;strong data-end=&quot;1933&quot; data-start=&quot;1922&quot;&gt;1..1&lt;/strong&gt;" style="edgeLabel;html=1;align=center;verticalAlign=middle;resizable=0;points=[];" vertex="1" connectable="0" parent="u1kkpKsbJfBWiW-mm26Q-20">
          <mxGeometry x="-0.6509" y="1" relative="1" as="geometry">
            <mxPoint x="-6" y="-14" as="offset" />
          </mxGeometry>
        </mxCell>
        <mxCell id="s8Ph6p0ntqMJTADkx-rv-13" value="&lt;strong data-end=&quot;1933&quot; data-start=&quot;1922&quot;&gt;0..*&lt;/strong&gt;" style="edgeLabel;html=1;align=center;verticalAlign=middle;resizable=0;points=[];" vertex="1" connectable="0" parent="u1kkpKsbJfBWiW-mm26Q-20">
          <mxGeometry x="0.7185" y="1" relative="1" as="geometry">
            <mxPoint x="-17" y="-4" as="offset" />
          </mxGeometry>
        </mxCell>
        <mxCell id="u1kkpKsbJfBWiW-mm26Q-21" value="" style="endArrow=open;endFill=1;endSize=12;html=1;rounded=0;" edge="1" parent="1" source="hXFHP3BiFAaLXpiSTmmo-5" target="7GwLjK6vqVXYc_SGpUxF-5">
          <mxGeometry width="160" relative="1" as="geometry">
            <mxPoint x="300" y="490" as="sourcePoint" />
            <mxPoint x="460" y="490" as="targetPoint" />
          </mxGeometry>
        </mxCell>
        <mxCell id="u1kkpKsbJfBWiW-mm26Q-22" value="" style="endArrow=open;endFill=1;endSize=12;html=1;rounded=0;" edge="1" parent="1" source="7GwLjK6vqVXYc_SGpUxF-5" target="hXFHP3BiFAaLXpiSTmmo-5">
          <mxGeometry width="160" relative="1" as="geometry">
            <mxPoint x="480" y="270" as="sourcePoint" />
            <mxPoint x="640" y="270" as="targetPoint" />
          </mxGeometry>
        </mxCell>
        <mxCell id="s8Ph6p0ntqMJTADkx-rv-14" value="&lt;strong data-end=&quot;1933&quot; data-start=&quot;1922&quot;&gt;0..*&lt;/strong&gt;" style="edgeLabel;html=1;align=center;verticalAlign=middle;resizable=0;points=[];" vertex="1" connectable="0" parent="u1kkpKsbJfBWiW-mm26Q-22">
          <mxGeometry x="-0.7995" y="-2" relative="1" as="geometry">
            <mxPoint y="-14" as="offset" />
          </mxGeometry>
        </mxCell>
        <mxCell id="s8Ph6p0ntqMJTADkx-rv-15" value="&lt;strong data-end=&quot;1933&quot; data-start=&quot;1922&quot;&gt;0..*&lt;/strong&gt;" style="edgeLabel;html=1;align=center;verticalAlign=middle;resizable=0;points=[];" vertex="1" connectable="0" parent="u1kkpKsbJfBWiW-mm26Q-22">
          <mxGeometry x="0.8059" y="-2" relative="1" as="geometry">
            <mxPoint y="-13" as="offset" />
          </mxGeometry>
        </mxCell>
      </root>
    </mxGraphModel>
  </diagram>
</mxfile>
